<?xml version="1.0" encoding="UTF-8"?>
<svg version="1.1" xmlns="http://www.w3.org/2000/svg" width="800" height="303">
<path d="M0 0 C0.87306353 -0.00367669 1.74612705 -0.00735338 2.64564705 -0.01114148 C5.57098097 -0.0221538 8.49627934 -0.02601803 11.42163086 -0.02983093 C13.51947644 -0.03609753 15.61732092 -0.04274451 17.71516418 -0.04974365 C24.60559316 -0.0707666 31.4960223 -0.08114579 38.38647461 -0.09111023 C40.76141369 -0.09515873 43.13635266 -0.09927568 45.5112915 -0.10346031 C56.67216274 -0.1225097 67.83302738 -0.13674013 78.99391174 -0.14507228 C91.86150466 -0.15483798 104.72892526 -0.1811413 117.59645748 -0.22157317 C127.55166994 -0.2517764 137.50683312 -0.26654523 147.46209049 -0.26985329 C153.4032004 -0.27219935 159.34412616 -0.28110184 165.28518677 -0.30631447 C170.879791 -0.32967309 176.47409086 -0.33379705 182.06873131 -0.32355309 C184.11445824 -0.32305948 186.16020055 -0.32932787 188.20588112 -0.34310913 C204.46672342 -0.44646463 216.8151681 1.22233358 230.32397461 11.14717102 C231.38551758 11.8974054 231.38551758 11.8974054 232.46850586 12.66279602 C236.90212652 16.12574234 240.04907205 20.29218577 243.13647461 24.95967102 C243.6964917 25.79413757 243.6964917 25.79413757 244.26782227 26.64546204 C249.11601405 34.34689062 250.77942765 42.52103406 250.70492554 51.52058411 C250.70960551 52.40820356 250.71428548 53.29582301 250.71910727 54.21034002 C250.73097771 57.15493504 250.72163137 60.09905776 250.7121582 63.0436554 C250.71622744 65.16681182 250.72157129 67.28996613 250.72808838 69.41311646 C250.74172584 75.1589334 250.73647803 80.90458813 250.72695112 86.65040779 C250.71933604 92.67419485 250.72640527 98.69796836 250.73110962 104.72175598 C250.73656178 114.83607975 250.72938968 124.95033772 250.71508789 135.06465149 C250.69876247 146.74469638 250.70405135 158.42458414 250.72056711 170.10462523 C250.73419731 180.14737651 250.73609412 190.1900806 250.7282511 200.23283815 C250.72358304 206.22458756 250.7229259 212.2162632 250.73286057 218.20800781 C250.74155024 223.84205133 250.73547164 229.47589298 250.7181778 235.10991478 C250.71422366 237.17301791 250.71532853 239.23613814 250.72196579 241.29923439 C250.7302139 244.12430204 250.71982049 246.94873054 250.70492554 249.77375793 C250.7116177 250.5821441 250.71830987 251.39053027 250.72520483 252.22341299 C250.55996095 268.47988965 242.17225313 280.2988925 231.09350586 291.37763977 C222.20928242 299.75868595 213.66540639 303.29700852 201.57165527 303.29434204 C200.67832284 303.29801873 199.78499042 303.30169542 198.86458731 303.30548352 C195.86471582 303.31651532 192.86487897 303.32036339 189.86499023 303.32417297 C187.7164092 303.33043812 185.56782925 303.33708497 183.41925049 303.34408569 C176.35624954 303.36512648 169.29324837 303.37548969 162.23022461 303.38545227 C159.79737842 303.38950014 157.36453235 303.39361708 154.9316864 303.39780235 C143.49904034 303.41685588 132.06640074 303.43108528 120.63374186 303.43941432 C107.44634791 303.44918073 94.25912208 303.47548414 81.07178736 303.51591522 C70.87372526 303.54610579 60.67571126 303.56088609 50.47760534 303.56419533 C44.38952012 303.5665429 38.30161446 303.57546515 32.21357727 303.60065651 C26.48110118 303.62399281 20.74892217 303.62814797 15.01641083 303.61789513 C12.91866313 303.61740097 10.82090053 303.62368564 8.72319794 303.63745117 C-9.93668436 303.7529946 -23.76918553 300.68917938 -37.86352539 287.58467102 C-47.70219402 277.30663601 -53.00417889 265.41028588 -52.9367218 251.17958069 C-52.94054735 250.31141543 -52.9443729 249.44325016 -52.94831437 248.54877687 C-52.95858103 245.65800959 -52.95466428 242.76744329 -52.95068359 239.87666321 C-52.95503364 237.79645607 -52.96021776 235.71625053 -52.96617126 233.63604736 C-52.97954272 227.99744734 -52.98014186 222.35891442 -52.97760797 216.72030163 C-52.97653674 212.00635817 -52.98142563 207.2924282 -52.98621339 202.57848763 C-52.99730272 191.45212049 -52.99774956 180.32578711 -52.99169922 169.19941711 C-52.98566265 157.73872183 -52.99796378 146.27814941 -53.01926929 134.81747508 C-53.03691169 124.96327203 -53.04288238 115.10910798 -53.03963155 105.25488973 C-53.03782236 99.37593955 -53.04041829 93.49707698 -53.05434608 87.61814117 C-53.06696229 82.08590414 -53.06494443 76.55385787 -53.0519352 71.02162361 C-53.04957792 68.99805956 -53.05227347 66.97448192 -53.06055832 64.95093346 C-53.13231232 46.05365843 -50.61716921 28.35221035 -36.90258789 14.10810852 C-26.17422596 4.65962134 -14.16220569 -0.00321106 0 0 Z M-16.67602539 39.14717102 C-21.13753226 44.50097926 -21.82272713 49.29654417 -21.80300903 56.07810974 C-21.80456902 56.89511695 -21.80612901 57.71212415 -21.80773628 58.55388916 C-21.81173613 61.30130986 -21.80856046 64.04867565 -21.80541992 66.7960968 C-21.80677447 68.76220736 -21.80855471 70.72831767 -21.81072998 72.69442749 C-21.81529967 78.04386339 -21.81351617 83.39328006 -21.81035089 88.74271631 C-21.80782278 94.33992726 -21.8101663 99.93713653 -21.81173706 105.53434753 C-21.81355833 114.94142452 -21.81115449 124.34849366 -21.80639648 133.75556946 C-21.80096343 144.62257967 -21.80270973 155.4895711 -21.80822289 166.35658085 C-21.81276654 175.68664273 -21.81339815 185.01669896 -21.81078422 194.34676158 C-21.80922712 199.91881612 -21.80901196 205.49086184 -21.81232071 211.0629158 C-21.81521725 216.30775006 -21.81319097 221.55256022 -21.80742645 226.79739189 C-21.80610801 228.71900709 -21.80647738 230.64062432 -21.80868912 232.56223869 C-21.81143694 235.192963 -21.80797523 237.82361095 -21.80300903 240.45433044 C-21.80523975 241.20814912 -21.80747048 241.96196779 -21.8097688 242.73862946 C-22.01794769 253.46521421 -22.01794769 253.46521421 -17.73852539 262.89717102 C-17.21387695 263.59326477 -16.68922852 264.28935852 -16.14868164 265.00654602 C-7.05626152 272.87802505 2.11586441 272.93497141 13.61889648 272.79902649 C16.31889161 272.77222148 19.0147311 272.79885723 21.71459961 272.83076477 C30.8907401 272.84983714 38.61507165 272.74707346 46.32397461 267.14717102 C47.22631836 266.51295227 48.12866211 265.87873352 49.05834961 265.22529602 C57.60907832 257.46998393 62.83431137 249.80665058 64.32397461 238.14717102 C64.84071746 219.93198545 55.58585589 209.18042271 43.74975586 196.63447571 C40.749601 193.50486211 37.65456546 190.47051581 34.57006836 187.42451477 C32.66435099 185.49228307 30.88683532 183.5307085 29.13647461 181.45967102 C25.59795148 177.30465102 21.70838459 173.53623109 17.82397461 169.70967102 C5.44234607 157.4295685 5.44234607 157.4295685 3.32397461 153.14717102 C4.0412728 143.71194101 18.66709428 133.64168218 25.39038086 127.86201477 C27.27892058 126.18712803 29.05553109 124.44769515 30.82397461 122.64717102 C33.19439818 120.23384385 35.63133769 117.97445249 38.19897461 115.77217102 C49.59222908 105.87167437 63.56304551 92.7286521 66.32397461 77.14717102 C66.93639601 67.48898435 67.19147526 58.81369657 62.32397461 50.14717102 C61.76709961 49.11592102 61.21022461 48.08467102 60.63647461 47.02217102 C53.06737927 37.61194438 44.32493671 31.88794259 32.32397461 30.14717102 C27.863263 29.88119693 23.41634976 29.81714867 18.94970703 29.83149719 C16.89358567 29.83466008 14.83890383 29.81111588 12.78295898 29.7858429 C1.36885542 29.72980364 -8.17402546 31.01823807 -16.67602539 39.14717102 Z M91.32397461 30.14717102 C92.68666248 33.66419657 94.205982 36.67036306 96.26147461 39.83467102 C104.23120198 52.91668692 105.41688561 70.36231252 102.25756836 85.17842102 C95.34001033 107.17567669 78.06801978 122.17465998 61.11694336 136.78388977 C57.95303157 139.53700992 55.09253394 142.42678304 52.32397461 145.58467102 C51.56084961 146.44963196 50.79772461 147.3145929 50.01147461 148.20576477 C49.45459961 148.84642883 48.89772461 149.4870929 48.32397461 150.14717102 C51.74540686 157.6346532 58.35255966 163.22282611 64.12866211 168.92060852 C66.76404204 171.59350276 69.2016395 174.40085405 71.64428711 177.24873352 C73.30602037 179.12687855 75.03522986 180.89022618 76.82397461 182.64717102 C79.87942061 185.654982 82.71294118 188.79966568 85.50366211 192.05342102 C86.75461728 193.49228791 88.03248272 194.9080591 89.33178711 196.30342102 C100.87248914 208.76562398 106.2695558 222.73965014 105.63256836 239.78388977 C104.54310989 251.65760807 100.50020402 260.21812061 94.32397461 270.14717102 C93.99397461 270.80717102 93.66397461 271.46717102 93.32397461 272.14717102 C127.97397461 272.14717102 162.62397461 272.14717102 198.32397461 272.14717102 C194.46337025 266.99969854 190.94112281 262.47559854 186.4296875 258.04170227 C185.8743483 257.48767731 185.31900909 256.93365234 184.74684143 256.36283875 C182.93468972 254.55710622 181.11565699 252.75847581 179.29663086 250.95967102 C178.02108756 249.69041176 176.74606713 248.42062686 175.47154236 247.15034485 C172.12975009 243.82178722 168.78242539 240.49885549 165.43341064 237.17756653 C160.07699994 231.86443898 154.7273546 226.54452244 149.38104057 221.22123718 C147.52517074 219.37548711 145.66587082 217.53324701 143.8061676 215.69136047 C138.62657792 210.54847255 133.53572289 205.41027737 128.79978943 199.84907532 C126.40130211 197.08314844 123.80751168 194.52581627 121.19897461 191.95967102 C120.64838379 191.41286682 120.09779297 190.86606262 119.53051758 190.3026886 C117.79746644 188.58167595 116.06117688 186.8639927 114.32397461 185.14717102 C101.20952858 172.18658162 101.20952858 172.18658162 95.80444336 165.82392883 C92.62127269 162.21871508 88.94468784 159.08510509 85.38647461 155.85810852 C83.32397461 153.14717102 83.32397461 153.14717102 83.40576172 150.29975891 C84.53079335 146.43708051 86.08511884 144.79692147 88.95288086 141.99482727 C89.42080551 141.53160568 89.88873016 141.06838409 90.37083435 140.59112549 C91.86468504 139.11850814 93.37521538 137.66439393 94.88647461 136.20967102 C95.87519971 135.23747599 96.8628407 134.26417711 97.84936523 133.28974915 C101.87812267 129.32996072 105.93752175 125.42441313 110.23022461 121.74873352 C115.57752706 117.14508204 120.54607361 112.14820608 125.54150391 107.1698761 C127.24772618 105.47334139 128.96435625 103.78782465 130.68139648 102.10224915 C146.90133524 86.06199197 146.90133524 86.06199197 152.82397461 64.77217102 C152.62214966 55.11340559 149.15057464 47.97377105 142.32397461 41.14717102 C130.94418596 31.59402741 119.66879366 29.51579886 105.07397461 29.89717102 C103.73155382 29.91729922 102.38910334 29.93553865 101.04663086 29.95185852 C97.80496299 29.99850122 94.56487405 30.0639397 91.32397461 30.14717102 Z M172.32397461 30.14717102 C174.27589143 34.17901654 176.77874002 37.55194806 179.47241211 41.12373352 C184.67198678 49.61417824 185.99132774 57.0678023 185.82397461 66.95967102 C185.80367187 68.68552429 185.80367187 68.68552429 185.78295898 70.44624329 C185.27127101 91.42396272 174.3829893 104.50434607 159.82250977 118.6007843 C156.89102058 121.36387497 153.89822298 124.05670596 150.89331055 126.73945618 C137.38995679 137.6119744 137.38995679 137.6119744 127.32397461 151.14717102 C128.39325195 152.19904602 128.39325195 152.19904602 129.48413086 153.27217102 C130.45171784 154.23036395 131.41915774 155.18870541 132.38647461 156.14717102 C132.8524707 156.60478821 133.3184668 157.0624054 133.79858398 157.53388977 C136.45099746 160.16825962 138.96408778 162.86719642 141.38818359 165.71357727 C145.82269572 170.80029933 150.59473866 175.52440379 155.38647461 180.27217102 C156.34648835 181.22776472 157.30619914 182.18366286 158.265625 183.1398468 C161.2822383 186.14514652 164.30279057 189.14646714 167.32397461 192.14717102 C170.83067612 195.63010113 174.33564927 199.11473604 177.83639526 202.60365295 C179.22282801 203.98370235 180.61234759 205.36064846 182.00195312 206.73750305 C186.42946151 211.14796176 190.69564241 215.61833055 194.76617432 220.36006165 C197.07376719 223.00733349 199.5215621 225.47452976 202.00366211 227.95967102 C202.50189484 228.45886047 203.00012756 228.95804993 203.51345825 229.47236633 C204.54900634 230.50858607 205.58578245 231.54358003 206.6237793 232.5773468 C208.22035595 234.16847945 209.81141072 235.76499817 211.40209961 237.36201477 C212.41479926 238.37405502 213.42780831 239.38578578 214.44116211 240.39717102 C215.81183838 241.7661554 215.81183838 241.7661554 217.21020508 243.16279602 C218.96227457 245.26124428 218.96227457 245.26124428 220.32397461 245.14717102 C220.42526639 198.12274785 220.48206434 151.10001057 219.91825485 104.07811356 C219.8866143 101.40895545 219.85660821 98.73978305 219.82693481 96.07060242 C219.77974994 91.87734131 219.7275446 87.68417237 219.6710968 83.49102592 C219.65108333 81.97402994 219.63228499 80.45701728 219.61488342 78.93998909 C220.2484715 57.29215731 220.2484715 57.29215731 211.82397461 38.14717102 C210.99897461 37.48717102 210.17397461 36.82717102 209.32397461 36.14717102 C208.70264648 35.64572571 208.08131836 35.1442804 207.44116211 34.62763977 C197.66659146 27.79265402 183.62710348 29.85550632 172.32397461 30.14717102 Z " fill="#00519C" transform="translate(52.676025390625,-0.1471710205078125)"/>
<path d="M0 0 C133.66666667 0 133.66666667 0 157 21 C157.598125 21.495 158.19625 21.99 158.8125 22.5 C169.4411057 31.98982652 176.26211433 48.21940598 177.14086914 62.24902344 C177.56055735 73.05783566 177.76207683 83.04562755 173 93 C172.57589844 93.91652344 172.15179688 94.83304687 171.71484375 95.77734375 C168.09613116 102.96436903 163.26540607 108.95063347 158 115 C158.556875 115.2475 159.11375 115.495 159.6875 115.75 C173.26697663 123.09025764 182.19865451 140.11252266 187.12109375 154.2109375 C193.08205862 175.03153252 191.17308138 198.78417962 181 218 C178.27931049 222.26687371 175.28837949 226.1577268 172 230 C171.45859375 230.65355469 170.9171875 231.30710938 170.359375 231.98046875 C153.27197742 250.83701608 126.86399491 254.59623559 103 256 C69.01 256 35.02 256 0 256 C0 171.52 0 87.04 0 0 Z M48 45 C48 63.15 48 81.3 48 100 C60.2947753 100.23280596 60.2947753 100.23280596 72.58984375 100.390625 C77.60729901 100.43839811 82.62358321 100.494822 87.64013672 100.60351562 C91.68621989 100.69063049 95.73104728 100.73831158 99.77799606 100.75901794 C101.31950019 100.77376717 102.86093771 100.80257221 104.40190506 100.84584045 C112.80699392 101.3659863 112.80699392 101.3659863 120.26548767 98.25654602 C121.81986618 96.22330948 122.94819654 94.3263496 124 92 C124.47050781 91.14792969 124.94101562 90.29585937 125.42578125 89.41796875 C128.92335504 80.62010693 130.63473036 71.04533355 127 62 C122.5515381 54.38390269 116.79108917 49.21026691 108.34375 46.578125 C101.5382541 44.89943601 95.01222281 44.86967716 88.0390625 44.90234375 C87.02287842 44.90335083 86.00669434 44.90435791 84.9597168 44.90539551 C81.18146631 44.91060825 77.40323196 44.92456947 73.625 44.9375 C60.940625 44.9684375 60.940625 44.9684375 48 45 Z M48 145 C48 166.45 48 187.9 48 210 C62.6953125 210.0928125 62.6953125 210.0928125 77.6875 210.1875 C82.28691528 210.22846802 82.28691528 210.22846802 86.97924805 210.27026367 C89.44840096 210.27903719 91.91755826 210.28667907 94.38671875 210.29296875 C96.26260681 210.3159906 96.26260681 210.3159906 98.1763916 210.33947754 C111.42630866 210.34336125 122.75684005 208.54082794 132.7421875 199.40625 C138.82757223 192.98783426 141.21485859 185.75384144 141.5 177 C141.15254532 166.97810419 138.03674371 160.16040572 131.14453125 152.91015625 C124.48769207 146.98084048 115.94327711 144.73918128 107.14672852 144.77294922 C106.17959175 144.77251114 106.17959175 144.77251114 105.19291687 144.77206421 C103.08810374 144.77344374 100.98365658 144.78893872 98.87890625 144.8046875 C97.40917657 144.80842255 95.93944438 144.8112672 94.4697113 144.81326294 C90.62115477 144.8208607 86.77275171 144.84047553 82.92425537 144.8626709 C78.29610617 144.88683128 73.66790535 144.8959287 69.039711 144.90757751 C62.0263676 144.92690261 55.01336027 144.96525172 48 145 Z " fill="#00519C" transform="translate(332,23)"/>
<path d="M0 0 C144.49745331 0 144.49745331 0 170.58203125 24.42578125 C186.75759192 41.6466124 190.78406558 62.07939828 190.27734375 84.9921875 C189.46420711 106.68707795 180.8453319 124.91722485 165.1875 139.8125 C156.30892294 147.37316328 143.15087085 157 131 157 C133.9802285 162.46494913 137.37202822 167.43068159 141.0625 172.4375 C145.31128408 178.25888985 149.50074091 184.10897289 153.5625 190.0625 C157.75520087 196.20354684 162.01225657 202.29475325 166.30883789 208.36352539 C170.81685728 214.73284594 175.29505417 221.12271084 179.75976562 227.52246094 C182.65508751 231.66854896 185.5667193 235.8008596 188.51953125 239.90625 C189.07447266 240.68097656 189.62941406 241.45570313 190.20117188 242.25390625 C191.24814107 243.71331786 192.29996516 245.16926317 193.35742188 246.62109375 C194.05641602 247.59755859 194.05641602 247.59755859 194.76953125 248.59375 C195.17792236 249.15771484 195.58631348 249.72167969 196.00708008 250.30273438 C197.10532361 252.18003681 197.51241383 253.89139071 198 256 C190.79502419 256.42028099 183.5927479 256.73838088 176.37792683 256.93261909 C173.02376388 257.02600154 169.68438494 257.16176884 166.33374023 257.35791016 C144.80729852 258.58569975 144.80729852 258.58569975 138.58737183 254.36148071 C134.4669132 250.23077388 131.73627442 245.43817566 129.15054321 240.24584961 C127.58432609 237.1886084 125.68889145 234.57396341 123.65234375 231.80859375 C122.41251907 230.01929764 121.17421381 228.22894767 119.9375 226.4375 C118.57468048 224.47103409 117.21139573 222.50489053 115.84765625 220.5390625 C115.1942627 219.59708008 114.54086914 218.65509766 113.86767578 217.68457031 C111.22152898 213.88103695 108.5517055 210.09456566 105.875 206.3125 C102.15413102 201.05265936 98.43644933 195.79074386 94.74560547 190.50976562 C93.54580626 188.80289492 92.33524584 187.10353521 91.11376953 185.41210938 C87.81615371 180.8089436 84.96944338 176.31479231 82.65551758 171.13818359 C80.60020314 167.73729332 77.68635002 164.92812152 75 162 C66.42 161.67 57.84 161.34 49 161 C49 192.35 49 223.7 49 256 C32.83 256 16.66 256 0 256 C0 171.52 0 87.04 0 0 Z M49 45 C49 68.43 49 91.86 49 116 C63.2003125 116.12375 63.2003125 116.12375 77.6875 116.25 C80.64936279 116.28641602 83.61122559 116.32283203 86.6628418 116.36035156 C89.04996011 116.37205041 91.4370865 116.38223939 93.82421875 116.390625 C95.0316272 116.41108887 96.23903564 116.43155273 97.48303223 116.45263672 C109.99809879 116.45769382 121.59746053 113.65306169 131 105 C138.745044 95.87660071 141.69208823 85.4485089 140.8203125 73.546875 C139.10507976 63.53551654 132.08187475 55.72466128 124 50 C117.156136 46.47622479 110.61232522 44.87028984 102.92456055 44.88647461 C101.09822083 44.88665588 101.09822083 44.88665588 99.23498535 44.88684082 C97.96505737 44.89195679 96.69512939 44.89707275 95.38671875 44.90234375 C93.62503357 44.90385437 93.62503357 44.90385437 91.82775879 44.90539551 C87.44766257 44.91062084 83.06758029 44.92458211 78.6875 44.9375 C68.890625 44.958125 59.09375 44.97875 49 45 Z " fill="#00519C" transform="translate(538,23)"/>
<path d="M0 0 C16.5 0 33 0 50 0 C50 84.48 50 168.96 50 256 C33.5 256 17 256 0 256 C0 171.52 0 87.04 0 0 Z " fill="#00519C" transform="translate(750,23)"/>
</svg>
